<svg xmlns="http://www.w3.org/2000/svg" viewBox="0 0 212.36 152.4"><defs><style>.cls-1{fill:#93b7dd;}.cls-1,.cls-2{fill-rule:evenodd;}.cls-2{fill:#1f1a17;}</style></defs><title>VivatLingua</title><g id="Ebene_2" data-name="Ebene 2"><g id="Ebene_1_Kopie_Kopie_2_Kopie_Kopie" data-name="Ebene 1 Kopie Kopie 2 Kopie Kopie"><path class="cls-1" d="M89.28,2.3a79.43,79.43,0,0,0-19.9,6.55A72.46,72.46,0,0,0,47,25.73c-12.31,14-19.07,30.7-20.42,49.55a79.86,79.86,0,0,0,2.86,26.87,68.9,68.9,0,0,0,2.89,8.29,64.2,64.2,0,0,0,31.94,33.74,49.76,49.76,0,0,0,7.55,2.93q.87.25,1.77.48c1.15.33,2.31.59,3.48.81a36.29,36.29,0,0,0,4.88.57,45.68,45.68,0,0,0,5.36.13,15.4,15.4,0,0,0,3.31-.18l.16-.17c.33-.06.78-.18.72-.59,0,0,0,0,0-.06l.7-.11c.3-.06.86-.15.79-.57s.12-.79.44-1.2l.38-.18a3.7,3.7,0,0,0,1.5-.65c.6-.19,1.11-.4,1.17-.77.12-.75-2.26-1.43-2.78-1.64a23.32,23.32,0,0,0-3-1,134.1,134.1,0,0,1-13.22-3.89c-3-1.12-6-2.43-8.91-3.8-1.11-.52-2.23-1.06-3.34-1.6a68.3,68.3,0,0,1-14.14-11.23c-.6-.62-1.19-1.29-1.75-2A61.58,61.58,0,0,1,38,99.15,69.62,69.62,0,0,1,34.6,75.51a81.15,81.15,0,0,1,6.07-28.43A71,71,0,0,1,51,29.41,72.84,72.84,0,0,1,71.09,12.29,62.68,62.68,0,0,1,77.23,9.1,121.4,121.4,0,0,1,99.46,1.68a91.19,91.19,0,0,0-10.18.62"/><path class="cls-1" d="M109.69,152.3a84.61,84.61,0,0,0,20.67-4.91,74.91,74.91,0,0,0,24.29-15,73.36,73.36,0,0,0,16.2-21.93,75.5,75.5,0,0,0,7.24-26.19,76.67,76.67,0,0,0-9-43.39,69.2,69.2,0,0,0-6.9-10.56,85.24,85.24,0,0,0-25-21.2A74.61,74.61,0,0,0,125.6,3.77c-.66-.23-1.32-.46-2-.67-1.13-.38-2.28-.73-3.44-1a45.68,45.68,0,0,0-5.05-1c-1.8-.27-3.58-.6-5.39-.72A18.67,18.67,0,0,0,106,0l-.18.15c-.36,0-.85.08-.83.49V.75c-.25,0-.5,0-.75,0s-.92,0-.89.46-.22.77-.6,1.12l-.42.13a4,4,0,0,0-1.67.44c-.66.1-1.24.23-1.35.58-.21.74,2.29,1.77,2.78,2a24.42,24.42,0,0,0,3.08,1.4c4.72,1.75,9.4,3.41,14,5.44,2.54,1.11,5,2.31,7.55,3.52l5.54,2.74.24.12a94.27,94.27,0,0,1,15.93,11.74A63.08,63.08,0,0,1,154.71,37a68.35,68.35,0,0,1,12.43,22.45,66.58,66.58,0,0,1,3.14,24.33,73.38,73.38,0,0,1-5.55,23.76c-.11.24-.21.49-.32.73A68.36,68.36,0,0,1,151,128.45a73.11,73.11,0,0,1-22,15.42,62.3,62.3,0,0,1-5.81,2.4,128.3,128.3,0,0,1-24.41,5.9,94.74,94.74,0,0,0,10.92.13"/><path class="cls-1" d="M110.68,137.52c8.79-8.82,17-18.31,23.48-29.11,6-10,10-21.12,10.54-32.89A68.81,68.81,0,0,0,136.86,42c-3.94-7.4-8.94-14.82-15-20.59-.41-.39-.84-.77-1.27-1.13s-.95-.83-1.46-1.22a22.51,22.51,0,0,0-2.76-1.8A29,29,0,0,0,113,15.41a12.72,12.72,0,0,0-1.87-.87l-.23.12A.75.75,0,0,0,110,15l0,.07a4.42,4.42,0,0,0-.48-.15.73.73,0,0,0-.91.28,3,3,0,0,1-1.24,1l-.36,0a2.57,2.57,0,0,0-1.36.06,1.46,1.46,0,0,0-1.28.29c-.67.68,0,2,.16,2.8a8.1,8.1,0,0,0,.9,2.15c1.66,2.76,3.71,5.36,5.58,8,1.3,1.81,2.63,3.6,4.08,5.29.58.67,1.17,1.33,1.8,2,2.44,3.38,4.86,6.78,7.18,10.26.47.71.94,1.45,1.37,2.2,4.82,8.25,8.08,16.8,8.43,26.56.25,6.83-1.12,13.2-3,19.68a71,71,0,0,1-3.45,9.23c-3.76,8.26-8.5,15.69-13.49,23.18-3,4.52-6.15,9.09-8.83,13.84,1.9-1.38,3.79-2.78,5.65-4.22"/><path class="cls-1" d="M100.7,14.57c-9.28,8.27-18,17.23-25.12,27.61-6.53,9.57-11.22,20.46-12.41,32.18a65.1,65.1,0,0,0,2,22.92,66.85,66.85,0,0,0,3.89,11c3.51,7.62,8.06,15.34,13.75,21.47.38.42.78.82,1.2,1.21s.9.89,1.38,1.3a23.11,23.11,0,0,0,2.65,2,29.94,29.94,0,0,0,3.32,2,11.21,11.21,0,0,0,1.8,1l.24-.1a.76.76,0,0,0,.91-.28l0-.06c.16.06.32.13.48.18a.72.72,0,0,0,.92-.23,3.08,3.08,0,0,1,1.3-1h.36a2.62,2.62,0,0,0,1.36,0,1.44,1.44,0,0,0,1.29-.21c.71-.64.18-2,0-2.81a7.69,7.69,0,0,0-.77-2.2c-1.49-2.86-3.39-5.58-5.11-8.3-1.19-1.89-2.42-3.75-3.76-5.53-.54-.7-1.1-1.4-1.69-2.07-2.24-3.52-4.46-7.07-6.57-10.68-.43-.75-.85-1.51-1.24-2.28-4.33-8.54-7.1-17.28-6.88-27,.15-6.83,1.88-13.11,4.15-19.45a69.64,69.64,0,0,1,4-9c4.22-8,9.39-15.14,14.8-22.3,3.27-4.33,6.67-8.7,9.62-13.27-2,1.26-3.94,2.54-5.89,3.86"/><path class="cls-1" d="M52.45,29.72a15,15,0,0,0,2.62,4.11,38.9,38.9,0,0,0,11.77,8.61c11.87,6,24.79,9.33,37.75,11.58a168.44,168.44,0,0,0,17,2.08,83.8,83.8,0,0,0,21.57-.9,32.56,32.56,0,0,0,8.45-2.65q.65-.31,1.26-.69a12.9,12.9,0,0,0,1.18-.73,14.45,14.45,0,0,0,2.28-1.94c.26-.27.51-.57.75-.87a11.41,11.41,0,0,0,2.2-4c.08-.24.15-.48.21-.73a9.82,9.82,0,0,0,.23-1.63l-.12-.13v0c0-.31-.11-.63-.46-.62h-.06a3.06,3.06,0,0,0-.07-.54c-.06-.3-.16-.62-.51-.58a1.59,1.59,0,0,1-1.08-.28l-.2-.24a1.48,1.48,0,0,0-.7-.75.88.88,0,0,0-.8-.45c-.56.08-.84.95-1.18,1.36s-.69.78-1,1.12a8.68,8.68,0,0,1-2.14,1.52,14.68,14.68,0,0,1-2.08.9c-1.53.53-3.08,1-4.63,1.41-.71.21-1.43.42-2.13.65l-1.27.23c-3,.51-6,.87-8.94,1.14a144.12,144.12,0,0,1-27-.38c-6.12-.61-12.14-1.63-18.19-2.72a101.7,101.7,0,0,1-18.66-5.11,46.88,46.88,0,0,1-9.59-5,22.91,22.91,0,0,1-2-1.54,15.06,15.06,0,0,1-3.15-3.55,10.28,10.28,0,0,1-1.41-4.09,9.67,9.67,0,0,0-.06,4.75c0,.22.11.43.17.65"/><path class="cls-1" d="M159.63,115.82a13.86,13.86,0,0,0-2.89-3.17,44.13,44.13,0,0,0-14-7.18c-14.07-4.67-28.86-6.72-43.56-7.75-5.54-.39-11.13-.57-16.69-.54a98.47,98.47,0,0,0-25.24,2.91,31.61,31.61,0,0,0-6.35,2.39c-.41.22-.81.44-1.2.68a15,15,0,0,0-1.94,1.31,13.14,13.14,0,0,0-2.68,2.79l-.18.26a11.65,11.65,0,0,0-1.49,3,6.75,6.75,0,0,0-.28,2,6.93,6.93,0,0,0,.06,1.29,7.93,7.93,0,0,0,.43,1.63l.17.06a.75.75,0,0,0,.07.12c.15.24.36.5.66.32l.05,0a4.13,4.13,0,0,0,.41.59c.18.2.4.37.65.18a1.5,1.5,0,0,1,1.09-.28l.21.09a1.87,1.87,0,0,0,1,.4,1,1,0,0,0,1,.07c.47-.34.26-1.4.33-1.92a2.28,2.28,0,0,1,.11-.45,1.69,1.69,0,0,1,.3-.76,2.13,2.13,0,0,1,.34-.25c.22-.15.42-.32.64-.46a13.15,13.15,0,0,1,2.65-1.33c2.14-.82,4.35-1.44,6.51-2.18.26-.08.52-.17.77-.27,3.63-.81,7.32-1.45,11-2a186.3,186.3,0,0,1,27.53-1.78c7.12,0,14.17.45,21.27.94a133.68,133.68,0,0,1,21.25,3.06,58.16,58.16,0,0,1,10.5,3.46,27,27,0,0,1,3.16,1.64,12.93,12.93,0,0,1,3.58,3,7.11,7.11,0,0,1,1.47,3.61,7.11,7.11,0,0,0-.21-4.35,7.72,7.72,0,0,0-.5-1.14"/><path class="cls-2" d="M206.85,91.59c.06,2.63.59,4,1.49,4.45,2.53,1.29,3.93-.53,4-4.45.09-4.13-1.4-6.25-4-4.91-1,.52-1.55,2.07-1.49,4.91"/><path class="cls-2" d="M162.74,83c0,8.77,1.93,12.72,7,13.67,6.44,1.16,9.34-3.67,9.34-13.83V56h-3.5v27c0,7-1.22,10.21-3.44,10.16-3.14-.07-3.83-2.83-3.83-10.22V56h-5.57"/><path class="cls-2" d="M156.37,66.45a16.44,16.44,0,0,0,0-1.72c-.41-6.38-3.46-10.49-8.38-9.32s-8.09,7.1-8.9,17.2c-1.12,14.49,2.52,22.93,8.41,24,3.45.66,5.79-1,7.13-4l.68,3.27h2.12V74.89h-9.28v3.55H152v8.22c0,5.6-1.34,7.94-3.73,6.88-2-.89-3.24-4.44-3.37-14.65,0-1.78,0-3.67,0-5.39.28-10.27,1.65-14.15,3.9-15.21,2.83-1.33,4.54,1.11,4.91,6.44a22.08,22.08,0,0,1,.07,2.61c0,.39,0,.83-.07,1.22"/><polyline class="cls-2" points="118.47 95.98 121.75 95.98 121.79 72.28 129.86 95.98 134.16 95.98 134.16 56.02 130.49 56.02 130.49 79.78 122.3 56.02 118.47 56.02"/><polyline class="cls-2" points="107.46 95.98 113.06 95.98 113.06 56.02 107.46 56.02"/><polyline class="cls-2" points="89.67 95.98 104.05 95.98 104.05 92.43 95.24 92.43 95.24 56.02 89.67 56.02"/><polyline class="cls-2" points="62.21 59.57 68 59.57 68 95.98 73.61 95.98 73.61 59.63 79.46 59.63 79.46 56.02 62.21 56.02"/><path class="cls-2" d="M51.21,83.38,53.7,68.2l2.21,15.18M45.69,96h3.47l1.49-9h5.79l1.4,9H63.5L57.21,56H52.33Z"/><polyline class="cls-2" points="20.75 95.98 26.36 95.98 26.36 56.02 20.75 56.02"/><polyline class="cls-2" points="0 56.02 5.89 95.98 10.87 95.98 17.31 56.02 13.76 56.02 9.52 83.12 5.67 56.02"/><polyline class="cls-2" points="206.88 55.96 212.16 55.96 210.83 82.74 208.21 82.74"/><path class="cls-2" d="M187.84,83.38l2.49-15.18,2.2,15.18M182.32,96h3.46l1.5-9h5.78l1.4,9h5.67l-6.29-40H189Z"/><polyline class="cls-2" points="29.81 56.02 35.7 95.98 40.68 95.98 47.12 56.02 43.57 56.02 39.33 83.12 35.48 56.02"/></g></g></svg>